<?xml version="1.0" encoding="UTF-8" standalone="no"?>
<!-- Created with Inkscape (http://www.inkscape.org/) -->

<svg
   width="12.7mm"
   height="12.700008mm"
   viewBox="0 0 12.7 12.700008"
   version="1.1"
   id="svg1"
   xml:space="preserve"
   xmlns:inkscape="http://www.inkscape.org/namespaces/inkscape"
   xmlns:sodipodi="http://sodipodi.sourceforge.net/DTD/sodipodi-0.dtd"
   xmlns="http://www.w3.org/2000/svg"
   xmlns:svg="http://www.w3.org/2000/svg"><sodipodi:namedview
     id="namedview1"
     pagecolor="#ffffff"
     bordercolor="#000000"
     borderopacity="0.25"
     inkscape:showpageshadow="2"
     inkscape:pageopacity="0.0"
     inkscape:pagecheckerboard="0"
     inkscape:deskcolor="#d1d1d1"
     inkscape:document-units="mm"><inkscape:page
       x="0"
       y="0"
       width="12.7"
       height="12.700008"
       id="page2"
       margin="0"
       bleed="0" /></sodipodi:namedview><defs
     id="defs1" /><g
     inkscape:label="Layer 1"
     inkscape:groupmode="layer"
     id="layer1"
     transform="translate(-354.23501,-113.53578)"><path
       style="fill:#30d1ff;fill-opacity:1;stroke-width:0.727356"
       d="m 365.53517,126.21267 c -0.30863,-0.0605 -0.65273,-0.3298 -0.79542,-0.6225 -0.15733,-0.32274 -0.15529,-0.71677 0.006,-1.0287 l 0.0786,-0.15247 -0.96837,-0.9681 -0.9684,-0.96812 -0.1168,0.0947 c -0.52234,0.42356 -1.13976,0.67916 -1.85474,0.76786 l -0.142,0.0176 v 0.38841 0.38841 l 0.11632,0.0515 c 0.28533,0.12622 0.46328,0.39824 0.46226,0.70659 -0.002,0.6443 -0.74335,0.9987 -1.2504,0.59792 -0.44109,-0.34868 -0.36274,-1.0389 0.1462,-1.28791 l 0.14692,-0.0718 v -0.38651 -0.38651 l -0.142,-0.0177 c -0.71501,-0.0887 -1.33239,-0.3443 -1.85477,-0.76789 l -0.11683,-0.0947 -0.48618,0.48617 -0.48617,0.48619 0.0891,0.18809 c 0.084,0.17723 0.089,0.20528 0.089,0.48564 0,0.2788 -0.006,0.30909 -0.0867,0.48078 -0.11401,0.24069 -0.3278,0.45449 -0.5685,0.56851 -0.17176,0.0813 -0.20191,0.0867 -0.48135,0.0867 -0.28497,0 -0.30644,-0.005 -0.48688,-0.0929 -0.24222,-0.11924 -0.43647,-0.3135 -0.55569,-0.5557 -0.0888,-0.18045 -0.0929,-0.20194 -0.0929,-0.4869 0,-0.27944 0.006,-0.3096 0.0867,-0.48134 0.11402,-0.24071 0.3278,-0.4545 0.56851,-0.56851 0.17169,-0.0813 0.20197,-0.0867 0.48077,-0.0867 0.28038,0 0.3084,0.006 0.48564,0.089 l 0.1881,0.0891 0.48616,-0.48618 0.48618,-0.48617 -0.0947,-0.11684 c -0.42358,-0.52237 -0.67919,-1.13976 -0.76788,-1.85477 l -0.0177,-0.14201 h -0.38841 -0.38842 l -0.0514,0.11633 c -0.17843,0.40337 -0.65035,0.57912 -1.04136,0.38782 -0.2738,-0.13397 -0.42925,-0.38509 -0.42925,-0.69349 0,-0.81558 1.09555,-1.06894 1.45402,-0.33628 l 0.0718,0.14693 h 0.38652 0.38648 l 0.0177,-0.14202 c 0.0887,-0.71497 0.34432,-1.3324 0.76787,-1.85473 l 0.0947,-0.11682 -0.96809,-0.96839 -0.96811,-0.96839 -0.15247,0.0786 c -0.31191,0.16059 -0.70597,0.16263 -1.02869,0.006 -0.19409,-0.0946 -0.43195,-0.33248 -0.52657,-0.52656 -0.21845,-0.44814 -0.13004,-0.96984 0.22442,-1.3243 0.45844,-0.45844 1.168,-0.45844 1.62644,0 0.35707,0.35706 0.44512,0.89189 0.2191,1.33084 l -0.0786,0.15246 0.9684,0.96811 0.96837,0.96811 0.11682,-0.0947 c 0.52234,-0.42355 1.13974,-0.67917 1.85473,-0.76787 l 0.14201,-0.0176 v -0.38652 -0.3865 l -0.14692,-0.0718 c -0.59991,-0.29352 -0.56805,-1.15124 0.0524,-1.41048 0.13568,-0.0566 0.43204,-0.0566 0.5677,0 0.62047,0.25924 0.65235,1.11696 0.0524,1.41048 l -0.14692,0.0718 v 0.3865 0.38652 l 0.14201,0.0176 c 0.715,0.0887 1.3324,0.34432 1.85477,0.76789 l 0.11683,0.0947 0.48617,-0.48618 0.48617,-0.48619 -0.0891,-0.18808 c -0.084,-0.17724 -0.0891,-0.20527 -0.0891,-0.48565 0,-0.2788 0.006,-0.30907 0.0867,-0.48077 0.11403,-0.24071 0.32782,-0.45449 0.56852,-0.56851 0.17175,-0.0813 0.2019,-0.0867 0.48134,-0.0867 0.28495,0 0.30644,0.005 0.48688,0.0929 0.24222,0.11923 0.43648,0.31349 0.55569,0.5557 0.0888,0.18045 0.0929,0.20193 0.0929,0.48689 0,0.27945 -0.006,0.30959 -0.0867,0.48135 -0.11401,0.24071 -0.3278,0.4545 -0.56852,0.56851 -0.17167,0.0813 -0.20197,0.0867 -0.48076,0.0867 -0.28038,0 -0.30841,-0.006 -0.48564,-0.0891 l -0.1881,-0.0891 -0.48617,0.48618 -0.48617,0.48616 0.0947,0.11685 c 0.42357,0.52237 0.67919,1.13977 0.76789,1.85476 l 0.0177,0.14202 h 0.38651 0.3865 l 0.0718,-0.14693 c 0.249,-0.50894 0.93921,-0.5873 1.28789,-0.14619 0.31297,0.39594 0.16817,0.98623 -0.29256,1.19261 -0.36492,0.16347 -0.8152,-0.006 -0.99533,-0.37388 l -0.0718,-0.14692 h -0.3865 -0.38651 l -0.0177,0.14201 c -0.0887,0.715 -0.34432,1.3324 -0.76788,1.85474 l -0.0947,0.11682 0.96809,0.96838 0.9681,0.96839 0.15247,-0.0785 c 0.31191,-0.16061 0.70597,-0.16265 1.02869,-0.006 0.1941,0.0946 0.43196,0.33247 0.52657,0.52656 0.42066,0.86289 -0.33226,1.83041 -1.27985,1.64466 z m 0.58032,-0.45076 c 0.12711,-0.0659 0.28455,-0.22468 0.35521,-0.35822 0.0373,-0.0708 0.0501,-0.15295 0.0501,-0.32459 0,-0.2592 -0.0346,-0.35012 -0.19862,-0.52301 -0.16468,-0.1735 -0.28024,-0.22021 -0.54477,-0.22021 -0.26453,0 -0.38009,0.0466 -0.54476,0.22021 -0.16411,0.17289 -0.19863,0.26381 -0.19863,0.52301 0,0.2592 0.0346,0.35017 0.19863,0.52292 0.17173,0.18084 0.31708,0.23658 0.58534,0.22449 0.12493,-0.006 0.22615,-0.0275 0.29752,-0.0646 z m -5.31754,-0.5678 c 0.0881,-0.0646 0.16457,-0.21222 0.1645,-0.31788 -8e-5,-0.10729 -0.0863,-0.24459 -0.19572,-0.31123 -0.24911,-0.15189 -0.58203,0.0579 -0.55245,0.34812 0.0297,0.29158 0.35523,0.4483 0.58367,0.28099 z m -4.12287,-0.38828 c 0.13983,-0.0657 0.32416,-0.2559 0.38565,-0.39785 0.0636,-0.14702 0.0579,-0.4485 -0.0114,-0.60021 -0.12764,-0.27922 -0.38696,-0.44355 -0.69863,-0.44273 -0.22709,6e-4 -0.3451,0.0465 -0.50991,0.19844 -0.17238,0.15889 -0.24347,0.32081 -0.24387,0.55536 -2.6e-4,0.1446 0.0143,0.2181 0.0617,0.31106 0.2015,0.39471 0.63519,0.55513 1.01639,0.37593 z m 4.16579,-1.86485 c 0.74936,-0.0711 1.39174,-0.36969 1.91023,-0.88818 1.02953,-1.02956 1.19449,-2.62559 0.3977,-3.84798 -0.77893,-1.19498 -2.2627,-1.68568 -3.62574,-1.19906 -0.79953,0.28544 -1.49728,0.97111 -1.80606,1.77482 -0.21692,0.5646 -0.25808,1.27671 -0.1078,1.86525 0.31729,1.24275 1.40082,2.17117 2.67716,2.2939 0.12646,0.0122 0.236,0.0238 0.24344,0.0257 0.008,0.002 0.14742,-0.009 0.31107,-0.0245 z m -2.31274,-1.56767 c -0.0729,-0.0729 -0.0714,-0.21935 0.003,-0.2866 0.0549,-0.0497 0.12808,-0.0515 2.05291,-0.0515 1.92485,0 1.99802,0.002 2.05292,0.0515 0.0743,0.0671 0.0757,0.21368 0.003,0.2866 -0.0531,0.0531 -0.0901,0.0541 -2.05575,0.0541 -1.96559,0 -2.00263,-7.4e-4 -2.05576,-0.0541 z m 0.53447,-0.55199 c -0.15223,-0.0551 -0.22926,-0.11388 -0.31135,-0.23785 l -0.0744,-0.11228 -0.009,-0.90818 c -0.01,-0.99277 -0.003,-1.05043 0.13787,-1.21043 0.17804,-0.20278 0.12578,-0.19698 1.7775,-0.19698 1.65173,0 1.59947,-0.006 1.77752,0.19698 0.14052,0.16002 0.14705,0.2175 0.13788,1.21289 l -0.009,0.91062 -0.0823,0.11725 c -0.0453,0.0645 -0.13659,0.14768 -0.20288,0.18487 l -0.12052,0.0676 -1.46067,0.006 c -1.17137,0.006 -1.4807,-0.002 -1.56186,-0.0306 z m 3.00706,-0.43898 c 0.0539,-0.0685 0.0559,-0.10275 0.0558,-0.85882 -2.1e-4,-0.43315 -0.009,-0.81543 -0.0169,-0.8495 -0.037,-0.13849 -0.0633,-0.14093 -1.52449,-0.14093 -1.46113,0 -1.48737,0.002 -1.52448,0.14093 -0.01,0.034 -0.0167,0.41635 -0.0169,0.8495 -3.6e-4,0.75607 0.002,0.79041 0.0558,0.85882 l 0.056,0.0712 h 1.42969 1.4297 z m -6.30708,-0.17203 c 0.0484,-0.0295 0.11234,-0.0934 0.1419,-0.1419 0.19633,-0.32198 -0.20385,-0.70922 -0.51683,-0.50013 -0.25147,0.16799 -0.2346,0.5128 0.0317,0.64862 0.12144,0.0618 0.23441,0.0597 0.34321,-0.007 z m 10.03818,-0.0195 c 0.231,-0.16923 0.20328,-0.50632 -0.0523,-0.63668 -0.12144,-0.0618 -0.23441,-0.0597 -0.3432,0.007 -0.25525,0.15564 -0.25525,0.49085 0,0.65108 0.10734,0.0673 0.28804,0.0579 0.39555,-0.021 z m -0.68573,-3.83374 c 0.13444,-0.0561 0.32441,-0.24326 0.39425,-0.38829 0.0899,-0.1865 0.0863,-0.45895 -0.009,-0.64117 -0.084,-0.16148 -0.20698,-0.28283 -0.37264,-0.36739 -0.16882,-0.0861 -0.44899,-0.0863 -0.62768,-1.9e-4 -0.14742,0.0711 -0.33119,0.25924 -0.39345,0.40302 -0.0636,0.14701 -0.0579,0.44849 0.0114,0.60021 0.0602,0.13174 0.22165,0.30679 0.33936,0.36799 0.18256,0.0949 0.46518,0.10605 0.65718,0.0258 z m -9.3865,-0.98232 c 0.12708,-0.0659 0.28455,-0.22468 0.35519,-0.35823 0.0373,-0.0708 0.0502,-0.15293 0.0502,-0.32458 0,-0.2592 -0.0346,-0.35013 -0.19863,-0.52301 -0.16467,-0.1735 -0.28024,-0.22021 -0.54477,-0.22021 -0.26453,0 -0.38008,0.0466 -0.54477,0.22021 -0.16408,0.17288 -0.19861,0.26381 -0.19861,0.52301 0,0.2592 0.0346,0.35017 0.19861,0.52293 0.17175,0.18082 0.3171,0.23656 0.58535,0.22448 0.12492,-0.006 0.22615,-0.0276 0.29755,-0.0646 z m 5.0382,-0.16873 c 0.18013,-0.10982 0.24003,-0.30556 0.14847,-0.48511 -0.13579,-0.26633 -0.4806,-0.2832 -0.64859,-0.0317 -0.15563,0.23294 0.0321,0.57059 0.31728,0.57059 0.0522,0 0.13435,-0.0242 0.18284,-0.0538 z"
       id="path1"
       inkscape:export-filename="logo.svg"
       inkscape:export-xdpi="300"
       inkscape:export-ydpi="300" /><text
       xml:space="preserve"
       style="font-style:normal;font-variant:normal;font-weight:normal;font-stretch:normal;font-size:0.885505px;font-family:'Mochica PERSONAL USE';-inkscape-font-specification:'Mochica PERSONAL USE, Normal';font-variant-ligatures:normal;font-variant-caps:normal;font-variant-numeric:normal;font-variant-east-asian:normal;text-align:start;writing-mode:lr-tb;direction:ltr;text-anchor:start;fill:#30d1ff;fill-opacity:1;stroke-width:0.0737918"
       x="359.41754"
       y="119.77948"
       id="text1"><tspan
         sodipodi:role="line"
         id="tspan1"
         style="font-style:normal;font-variant:normal;font-weight:normal;font-stretch:normal;font-size:0.885505px;font-family:'Mochica PERSONAL USE';-inkscape-font-specification:'Mochica PERSONAL USE, Normal';font-variant-ligatures:normal;font-variant-caps:normal;font-variant-numeric:normal;font-variant-east-asian:normal;fill:#30d1ff;fill-opacity:1;stroke-width:0.0737918"
         x="359.41754"
         y="119.77948">THS</tspan></text></g></svg>
